#!OML:ASF H:\ManfredETheater\Project 1\Capture day 1\Session 1\subject.ASF
:FULLY-SPECIFIED
:DEGREES
154
root 9.75833 16.4689 23.6152 9.51746 61.1261 6.36516
lowerback 15.8681 -1.29047 -6.03932
upperback 1.42122 -2.62966 1.03316
thorax -7.05351 -1.05867 5.09616
lowerneck -16.2061 -1.21714 -2.64436
upperneck 15.6614 -0.493405 -2.54115
head 7.49692 -0.624281 -0.455182
rclavicle 1.04362e-014 2.22639e-014
rhumerus -62.3548 -6.27531 -79.9408
rradius 81.511
rwrist -24.5167
rhand -24.4585 5.6447
rfingers 7.12502
rthumb 2.0345 -24.3253
lclavicle 1.04362e-014 2.22639e-014
lhumerus -51.8741 -8.65499 91.9969
lradius 69.7324
lwrist 4.51622
lhand -25.3105 -12.6202
lfingers 7.12502
lthumb 1.21168 17.3561
rfemur -40.1475 -7.1301 21.0851
rtibia 46.8957
rfoot -6.18938 -8.54583
rtoes -5.96695
lfemur -11.2286 -5.73812 -25.4221
ltibia 75.988
lfoot 0.38099 -7.1865
ltoes -4.45004
155
root 10.0625 16.4032 23.8846 7.07218 61.1642 4.29426
lowerback 16.4415 -1.18829 -5.11969
upperback 1.5009 -2.33599 1.29057
thorax -7.34799 -0.928209 4.81301
lowerneck -16.1847 -1.30339 -2.59002
upperneck 15.5354 -0.620217 -2.59094
head 7.45118 -0.684448 -0.493525
rclavicle -5.55603e-014 5.36719e-015
rhumerus -60.6299 -6.06169 -80.6399
rradius 81.0612
rwrist -24.3729
rhand -24.8132 5.31655
rfingers 7.12502
rthumb 1.69202 -24.6565
lclavicle -5.55603e-014 5.36719e-015
lhumerus -51.7167 -6.88307 90.7796
lradius 66.8493
lwrist 4.47554
lhand -25.6798 -12.47
lfingers 7.12502
lthumb 0.854989 17.508
rfemur -38.9912 -6.27272 22.2244
rtibia 49.0268
rfoot -8.147 -9.85459
rtoes -6.23146
lfemur -13.3697 -5.11882 -23.4297
ltibia 78.7475
lfoot -1.46059 -6.27851
ltoes -4.0807
156
root 10.3643 16.3404 24.1484 4.82964 61.1808 2.30294
lowerback 16.8878 -1.12329 -4.22674
upperback 1.55956 -2.07968 1.54155
thorax -7.58353 -0.818976 4.53645
lowerneck -16.1829 -1.36671 -2.53639
upperneck 15.4227 -0.715385 -2.63565
head 7.41317 -0.729479 -0.526703
rclavicle 2.26118e-014 -1.07344e-014
rhumerus -58.7936 -5.61445 -81.3997
rradius 80.6541
rwrist -23.9863
rhand -25.1587 4.97599
rfingers 7.12502
rthumb 1.3583 -24.9994
lclavicle 2.26118e-014 -1.07344e-014
lhumerus -51.6482 -5.15662 89.5328
lradius 64.2098
lwrist 4.23277
lhand -26.0215 -12.3852
lfingers 7.12502
lthumb 0.525022 17.5939
rfemur -37.8631 -5.67454 23.3798
rtibia 50.9047
rfoot -10.0793 -10.8855
rtoes -7.33144
lfemur -15.8005 -4.56663 -21.5393
ltibia 81.247
lfoot -3.2499 -5.42027
ltoes -3.61826
157
root 10.6649 16.2794 24.4077 2.95741 61.2208 0.569683
lowerback 17.1721 -1.09695 -3.44713
upperback 1.58844 -1.88513 1.76532
thorax -7.74766 -0.740109 4.30024
lowerneck -16.1804 -1.41007 -2.48508
upperneck 15.3339 -0.784171 -2.66856
head 7.38294 -0.761285 -0.552803
rclavicle 4.84538e-014 -1.27222e-014
rhumerus -56.9185 -4.92941 -82.2031
rradius 80.3586
rwrist -23.3972
rhand -25.4636 4.66822
rfingers 7.12502
rthumb 1.06386 -25.3089
lclavicle 4.84538e-014 -1.27222e-014
lhumerus -51.7227 -3.5935 88.3259
lradius 61.8839
lwrist 3.71972
lhand -26.3366 -12.366
lfingers 7.12502
lthumb 0.220687 17.6136
rfemur -36.7415 -5.41461 24.4771
rtibia 52.5015
rfoot -12.0678 -11.7347
rtoes -8.644
lfemur -18.5085 -4.13707 -19.8846
ltibia 83.4351
lfoot -4.96098 -4.59319
ltoes -3.08812
158
root 10.9658 16.224 24.6645 1.54429 61.3174 -0.800913
lowerback 17.2653 -1.09773 -2.8625
upperback 1.58981 -1.75805 1.96436
thorax -7.82151 -0.691519 4.15611
lowerneck -16.1593 -1.44028 -2.43539
upperneck 15.2699 -0.833558 -2.70537
head 7.35764 -0.784445 -0.577738
rclavicle 4.95471e-014 2.38542e-015
rhumerus -55.0789 -4.02005 -83.0083
rradius 80.2638
rwrist -22.68
rhand -25.6997 4.428
rfingers 7.12502
rthumb 0.835807 -25.5501
lclavicle 4.95471e-014 2.38542e-015
lhumerus -51.9586 -2.31053 87.257
lradius 59.9373
lwrist 2.94611
lhand -26.5458 -12.417
lfingers 7.12502
lthumb 0.0186278 17.5627
rfemur -35.6148 -5.46536 25.4303
rtibia 53.8148
rfoot -14.0131 -12.3833
rtoes -9.9354
lfemur -21.4513 -3.80213 -18.5313
ltibia 85.2413
lfoot -6.57137 -3.83238
ltoes -2.63252
159
root 11.2669 16.1747 24.9206 0.554942 61.4871 -1.82905
lowerback 17.1823 -1.11316 -2.48301
upperback 1.56152 -1.68872 2.14438
thorax -7.81841 -0.666998 4.11577
lowerneck -16.1205 -1.46851 -2.39884
upperneck 15.2499 -0.876915 -2.73704
head 7.34387 -0.80539 -0.598302
rclavicle -2.04748e-014 -5.76476e-015
rhumerus -53.3638 -2.93338 -83.7873
rradius 80.4695
rwrist -21.9541
rhand -25.8332 4.2715
rfingers 7.12502
rthumb 0.706879 -25.7071
lclavicle -2.04748e-014 -5.76476e-015
lhumerus -52.3758 -1.4408 86.4253
lradius 58.4537
lwrist 2.05731
lhand -26.6148 -12.5146
lfingers 7.12502
lthumb -0.0480829 17.4651
rfemur -34.4857 -5.74761 26.22
rtibia 54.8738
rfoot -15.873 -12.9566
rtoes -11.2862
lfemur -24.5668 -3.55885 -17.4803
ltibia 86.6211
lfoot -8.09677 -3.16601
ltoes -2.35361
160
root 11.5685 16.1322 25.1765 -0.0571391 61.7292 -2.53332
lowerback 16.9587 -1.1305 -2.29855
upperback 1.50657 -1.66085 2.30587
thorax -7.75756 -0.658181 4.17176
lowerneck -16.0666 -1.5052 -2.36923
upperneck 15.2791 -0.927953 -2.77256
head 7.34362 -0.831212 -0.620035
rclavicle 3.4191e-014 -1.98785e-016
rhumerus -51.8508 -1.72469 -84.5228
rradius 81.0593
rwrist -21.3301
rhand -25.8862 4.22811
rfingers 7.12502
rthumb 0.655637 -25.7506
lclavicle 3.4191e-014 -1.98785e-016
lhumerus -52.9658 -1.08149 85.9242
lradius 57.4922
lwrist 1.27559
lhand -26.533 -12.6468
lfingers 7.12502
lthumb 0.03091 17.3329
rfemur -33.3388 -6.19339 26.8287
rtibia 55.7087
rfoot -17.6176 -13.4424
rtoes -12.5964
lfemur -27.7675 -3.38487 -16.7334
ltibia 87.5295
lfoot -9.52608 -2.60266
ltoes -2.39924
161
root 11.8714 16.0967 25.432 -0.502047 61.9936 -3.09995
lowerback 16.6465 -1.13151 -2.20786
upperback 1.43814 -1.62996 2.46412
thorax -7.65974 -0.645937 4.27408
lowerneck -16.0103 -1.56372 -2.3557
upperneck 15.3594 -1.00376 -2.80351
head 7.35975 -0.869938 -0.640714
rclavicle -1.71949e-014 2.66371e-014
rhumerus -50.5906 -0.455355 -85.2028
rradius 82.0817
rwrist -20.8965
rhand -25.8736 4.32535
rfingers 7.12502
rthumb 0.667865 -25.6534
lclavicle -1.71949e-014 2.66371e-014
lhumerus -53.7091 -1.27994 85.8085
lradius 57.0856
lwrist 0.780332
lhand -26.2993 -12.7951
lfingers 7.12502
lthumb 0.256661 17.1844
rfemur -32.13 -6.70514 27.341
rtibia 56.3406
rfoot -19.2282 -13.8522
rtoes -13.9666
lfemur -30.937 -3.24705 -16.1952
ltibia 87.9463
lfoot -10.8706 -2.1629
ltoes -2.64029
162
root 12.1766 16.0697 25.6869 -0.953523 62.2337 -3.67868
lowerback 16.2991 -1.09922 -2.12301
upperback 1.36635 -1.55622 2.629
thorax -7.54935 -0.612864 4.37617
lowerneck -15.9695 -1.6565 -2.3612
upperneck 15.4967 -1.12051 -2.82606
head 7.3973 -0.929315 -0.660656
rclavicle -2.71341e-014 1.82882e-014
rhumerus -49.611 0.808299 -85.8133
rradius 83.5559
rwrist -20.7083
rhand -25.7844 4.53626
rfingers 7.12502
rthumb 0.753979 -25.4422
lclavicle -2.71341e-014 1.82882e-014
lhumerus -54.5883 -2.01366 86.0865
lradius 57.2292
lwrist 0.660091
lhand -25.9162 -12.9913
lfingers 7.12502
lthumb 0.626704 16.9875
rfemur -30.8068 -7.21028 27.8275
rtibia 56.7771
rfoot -20.6604 -14.1979
rtoes -15.3985
lfemur -33.9619 -3.0773 -15.7814
ltibia 87.8488
lfoot -12.1497 -1.88153
ltoes -3.14163
163
root 12.4846 16.0521 25.9397 -1.57985 62.4125 -4.3952
lowerback 15.9953 -1.02674 -1.95206
upperback 1.30558 -1.41369 2.80224
thorax -7.4593 -0.548167 4.4247
lowerneck -15.9547 -1.78982 -2.38926
upperneck 15.6807 -1.28811 -2.82958
head 7.4548 -1.01322 -0.677026
rclavicle -3.07122e-014 2.90226e-014
rhumerus -48.9072 2.0315 -86.3583
rradius 85.4403
rwrist -20.7194
rhand -25.6584 4.85031
rfingers 7.12502
rthumb 0.87566 -25.1276
lclavicle -3.07122e-014 2.90226e-014
lhumerus -55.5991 -3.21565 86.7257
lradius 57.914
lwrist 0.963786
lhand -25.4512 -13.1699
lfingers 7.12502
lthumb 1.07575 16.8071
rfemur -29.3076 -7.67506 28.3418
rtibia 57.0125
rfoot -21.8785 -14.4685
rtoes -16.8749
lfemur -36.7306 -2.85442 -15.4358
ltibia 87.2275
lfoot -13.3473 -1.73248
ltoes -3.82175
164
root 12.7963 16.0457 26.1905 -2.3108 62.5023 -5.19757
lowerback 15.7111 -0.906557 -1.69976
upperback 1.25338 -1.19517 2.96893
thorax -7.37928 -0.448682 4.40442
lowerneck -15.9709 -1.96403 -2.44633
upperneck 15.8938 -1.5092 -2.79821
head 7.52778 -1.12157 -0.683949
rclavicle -6.08281e-014 1.78906e-014
rhumerus -48.4461 3.19899 -86.8399
rradius 87.662
rwrist -20.8491
rhand -25.4862 5.23523
rfingers 7.12502
rthumb 1.042 -24.742
lclavicle -6.08281e-014 1.78906e-014
lhumerus -56.7203 -4.75078 87.6387
lradius 59.0652
lwrist 1.6082
lhand -24.9585 -13.2725
lfingers 7.12502
lthumb 1.55165 16.7016
rfemur -27.669 -8.07384 28.8619
rtibia 57.046
rfoot -22.8061 -14.6544
rtoes -18.4574
lfemur -39.2145 -2.57251 -15.1801
ltibia 86.0636
lfoot -14.4311 -1.6738
ltoes -4.56928
165
root 13.1119 16.055 26.4395 -3.06109 62.5023 -5.98363
lowerback 15.4547 -0.739102 -1.40264
upperback 1.2124 -0.909647 3.11119
thorax -7.30854 -0.317944 4.31956
lowerneck -16.0053 -2.17317 -2.52689
upperneck 16.1142 -1.77896 -2.7297
head 7.60708 -1.25107 -0.680855
rclavicle 1.19271e-014 -2.66371e-014
rhumerus -48.1825 4.30433 -87.2665
rradius 90.1223
rwrist -21.0009
rhand -25.295 5.67311
rfingers 7.12502
rthumb 1.22661 -24.3031
lclavicle 1.19271e-014 -2.66371e-014
lhumerus -57.9225 -6.45508 88.7143
lradius 60.5758
lwrist 2.45214
lhand -24.4791 -13.3167
lfingers 7.12502
lthumb 2.01462 16.6536
rfemur -25.8984 -8.41102 29.3349
rtibia 56.8889
rfoot -23.3895 -14.7373
rtoes -20.2468
lfemur -41.3477 -2.25874 -15.0528
ltibia 84.3277
lfoot -15.3788 -1.6698
ltoes -5.19291
166
root 13.4319 16.0852 26.6877 -3.76653 62.4219 -6.69631
lowerback 15.2012 -0.536426 -1.08275
upperback 1.18295 -0.578075 3.22015
thorax -7.22954 -0.166028 4.17722
lowerneck -16.0464 -2.40681 -2.64305
upperneck 16.3307 -2.08529 -2.60342
head 7.68783 -1.3944 -0.657487
rclavicle 5.76476e-014 -1.78906e-014
rhumerus -48.0647 5.35011 -87.6484
rradius 92.713
rwrist -21.042
rhand -25.0529 6.12789
rfingers 7.12502
rthumb 1.46048 -23.8469
lclavicle 5.76476e-014 -1.78906e-014
lhumerus -59.1798 -8.16947 89.8414
lradius 62.3441
lwrist 3.34778
lhand -24.0544 -13.2713
lfingers 7.12502
lthumb 2.42478 16.6946
rfemur -24.0292 -8.68597 29.7282
rtibia 56.5739
rfoot -23.6101 -14.6649
rtoes -22.1474
lfemur -43.0838 -1.91431 -15.0641
ltibia 81.992
lfoot -16.181 -1.68219
ltoes -5.66422
